<svg width="216" height="50" viewBox="0 0 216 50" fill="none" xmlns="http://www.w3.org/2000/svg">
<g clip-path="url(#clip0_1212_474)">
<path d="M68.986 43.7121V23.674H73.6981V43.7121H68.986ZM61 43.7121V23.674H65.7121V43.7121H61ZM63.815 35.3629V31.5374H70.9749V35.3629H63.815Z" fill="white"/>
<path d="M74.5724 43.7121V23.674H79.3763V43.7121H74.5724Z" fill="white"/>
<path d="M85.8718 44.1068C84.4847 44.1068 83.3832 43.6514 82.5672 42.7406C81.7513 41.8095 81.1699 40.5647 80.8231 39.0062C80.4764 37.4274 80.303 35.6665 80.303 33.7234C80.303 32.2459 80.405 30.8796 80.609 29.6247C80.8129 28.3495 81.1699 27.2464 81.6799 26.3154C82.2102 25.3641 82.9344 24.6253 83.8523 24.099C84.7703 23.5728 85.933 23.3097 87.3405 23.3097C88.646 23.3097 89.7067 23.5222 90.5227 23.9472C91.359 24.3723 91.9914 24.939 92.4197 25.6474C92.8685 26.3559 93.1337 27.1554 93.2153 28.0459C93.3173 28.9163 93.2663 29.817 93.0623 30.7481L88.6562 31.2035C88.7582 30.3938 88.7684 29.6652 88.6868 29.0175C88.6052 28.3495 88.4318 27.8233 88.1666 27.4387C87.9014 27.0542 87.5445 26.8619 87.0957 26.8619C86.6061 26.8619 86.2084 27.1048 85.9024 27.5905C85.5964 28.0763 85.372 28.7948 85.2292 29.7461C85.0864 30.6974 85.015 31.8714 85.015 33.268C85.015 34.6646 85.066 35.8284 85.168 36.7595C85.2904 37.6906 85.4434 38.4293 85.627 38.9758C85.8106 39.5223 86.035 39.917 86.3002 40.1599C86.5653 40.3825 86.8509 40.4939 87.1569 40.4939C87.5649 40.4939 87.9116 40.3522 88.1972 40.0688C88.4828 39.7652 88.7072 39.33 88.8704 38.7633C89.054 38.1966 89.1764 37.5387 89.2376 36.7898H87.1875V33.5109H93.3683V43.7121H90.5533L90.5227 37.8828H90.0943C90.0943 39.077 89.9719 40.1498 89.7271 41.1011C89.5027 42.0321 89.0846 42.7709 88.4726 43.3174C87.8607 43.8437 86.9937 44.1068 85.8718 44.1068Z" fill="white"/>
<path d="M102.228 43.7121V23.674H106.941V43.7121H102.228ZM94.2424 43.7121V23.674H98.9545V43.7121H94.2424ZM97.0574 35.3629V31.5374H104.217V35.3629H97.0574Z" fill="white"/>
<path d="M115.906 44.1068C114.58 44.1068 113.468 43.9145 112.571 43.5299C111.693 43.1454 111.01 42.6292 110.52 41.9815C110.031 41.3136 109.725 40.5546 109.603 39.7045C109.48 38.8341 109.521 37.9233 109.725 36.972L114.009 36.4559C113.927 37.1845 113.927 37.8727 114.009 38.5204C114.09 39.1479 114.284 39.664 114.59 40.0688C114.896 40.4736 115.345 40.676 115.936 40.676C116.222 40.676 116.477 40.6254 116.701 40.5242C116.946 40.4028 117.14 40.2105 117.283 39.9474C117.446 39.664 117.527 39.2896 117.527 38.824C117.527 38.1561 117.374 37.5792 117.068 37.0935C116.762 36.6077 116.344 36.1725 115.814 35.7879C115.284 35.4034 114.682 35.0087 114.009 34.6039C113.458 34.2598 112.907 33.9056 112.356 33.5412C111.826 33.1567 111.347 32.7316 110.918 32.2661C110.49 31.7803 110.153 31.2338 109.909 30.6266C109.664 30.0194 109.541 29.3211 109.541 28.5317C109.541 27.4994 109.766 26.5987 110.215 25.8296C110.684 25.0402 111.377 24.433 112.295 24.008C113.213 23.5627 114.345 23.34 115.692 23.34C117.242 23.34 118.486 23.6234 119.424 24.1901C120.363 24.7366 121.036 25.4956 121.444 26.4672C121.852 27.4387 122.005 28.552 121.903 29.8069L117.65 30.3534C117.711 29.8878 117.711 29.4527 117.65 29.0478C117.589 28.6228 117.476 28.2483 117.313 27.9245C117.15 27.6006 116.926 27.3476 116.64 27.1655C116.354 26.9631 116.028 26.8619 115.661 26.8619C115.355 26.8619 115.09 26.9327 114.865 27.0744C114.641 27.1958 114.457 27.378 114.315 27.6209C114.192 27.8435 114.131 28.1067 114.131 28.4103C114.131 28.9163 114.274 29.3515 114.559 29.7158C114.845 30.0801 115.202 30.404 115.63 30.6873C116.079 30.9707 116.538 31.2541 117.007 31.5374C117.64 31.8815 118.262 32.2762 118.874 32.7215C119.506 33.1466 120.067 33.6323 120.557 34.1788C121.067 34.7253 121.464 35.3629 121.75 36.0915C122.056 36.8 122.209 37.6298 122.209 38.5811C122.209 39.5729 122.005 40.4939 121.597 41.344C121.189 42.1941 120.526 42.8721 119.608 43.3781C118.69 43.8639 117.456 44.1068 115.906 44.1068Z" fill="white"/>
<path d="M129.71 44.1068C128.404 44.1068 127.313 43.8842 126.436 43.4389C125.559 42.9733 124.855 42.2953 124.324 41.4047C123.794 40.5141 123.417 39.4414 123.192 38.1864C122.968 36.9113 122.856 35.4641 122.856 33.8449C122.856 32.2661 122.968 30.829 123.192 29.5336C123.417 28.2382 123.784 27.1351 124.294 26.2243C124.824 25.2932 125.528 24.5848 126.405 24.099C127.303 23.593 128.404 23.34 129.71 23.34C130.913 23.34 131.913 23.5424 132.708 23.9472C133.524 24.352 134.146 24.9087 134.575 25.6171C135.024 26.3255 135.309 27.1452 135.432 28.0763C135.574 28.9871 135.585 29.9587 135.462 30.9909L131.056 31.4767C131.178 30.4242 131.178 29.564 131.056 28.896C130.934 28.2079 130.73 27.7019 130.444 27.378C130.158 27.0542 129.842 26.8922 129.496 26.8922C129.169 26.8922 128.884 27.0238 128.639 27.2869C128.414 27.5298 128.221 27.9144 128.057 28.4406C127.894 28.9466 127.772 29.6146 127.69 30.4444C127.609 31.2743 127.568 32.2661 127.568 33.4198C127.568 35.1807 127.649 36.5773 127.813 37.6096C127.996 38.6216 128.241 39.3503 128.547 39.7956C128.853 40.2409 129.2 40.4635 129.587 40.4635C130.097 40.4635 130.485 40.1903 130.75 39.6438C131.036 39.077 131.219 38.3585 131.301 37.4881C131.382 36.6178 131.372 35.6867 131.27 34.695L135.738 35.2718C135.901 36.6077 135.911 37.8221 135.768 38.9151C135.646 39.9879 135.34 40.9189 134.85 41.7083C134.361 42.4774 133.687 43.0745 132.831 43.4996C131.994 43.9044 130.954 44.1068 129.71 44.1068Z" fill="white"/>
<path d="M144.628 43.7121V23.674H149.34V43.7121H144.628ZM136.642 43.7121V23.674H141.354V43.7121H136.642ZM139.457 35.3629V31.5374H146.617V35.3629H139.457Z" fill="white"/>
<path d="M156.92 44.1068C155.737 44.1068 154.727 43.8943 153.891 43.4692C153.054 43.0442 152.371 42.4066 151.841 41.5565C151.31 40.6862 150.923 39.6033 150.678 38.3079C150.433 36.9923 150.311 35.4742 150.311 33.7538C150.311 31.3249 150.545 29.3413 151.015 27.8031C151.484 26.2648 152.208 25.1313 153.187 24.4026C154.187 23.6537 155.441 23.2793 156.951 23.2793C158.134 23.2793 159.143 23.4918 159.98 23.9169C160.837 24.3217 161.54 24.9491 162.091 25.7992C162.642 26.6291 163.05 27.7019 163.315 29.0175C163.601 30.3129 163.743 31.841 163.743 33.602C163.743 35.3831 163.601 36.9315 163.315 38.2472C163.05 39.5628 162.642 40.6558 162.091 41.5261C161.54 42.3965 160.837 43.0442 159.98 43.4692C159.123 43.8943 158.103 44.1068 156.92 44.1068ZM156.951 40.5242C157.399 40.5242 157.767 40.2915 158.052 39.8259C158.358 39.3402 158.582 38.6014 158.725 37.6096C158.868 36.6178 158.939 35.3831 158.939 33.9056C158.939 32.3268 158.858 31.0213 158.695 29.989C158.552 28.9568 158.327 28.1876 158.021 27.6816C157.736 27.1554 157.369 26.8922 156.92 26.8922C156.512 26.8922 156.165 27.1452 155.88 27.6513C155.614 28.137 155.41 28.8859 155.268 29.8979C155.145 30.91 155.084 32.1952 155.084 33.7538C155.084 34.9075 155.115 35.9094 155.176 36.7595C155.257 37.6096 155.37 38.318 155.512 38.8847C155.676 39.4312 155.88 39.8462 156.124 40.1295C156.369 40.3927 156.645 40.5242 156.951 40.5242Z" fill="white"/>
<path d="M171.227 44.1068C170.043 44.1068 169.034 43.8943 168.197 43.4692C167.361 43.0442 166.678 42.4066 166.147 41.5565C165.617 40.6862 165.229 39.6033 164.985 38.3079C164.74 36.9923 164.617 35.4742 164.617 33.7538C164.617 31.3249 164.852 29.3413 165.321 27.8031C165.79 26.2648 166.514 25.1313 167.494 24.4026C168.493 23.6537 169.748 23.2793 171.257 23.2793C172.44 23.2793 173.45 23.4918 174.286 23.9169C175.143 24.3217 175.847 24.9491 176.398 25.7992C176.948 26.6291 177.356 27.7019 177.622 29.0175C177.907 30.3129 178.05 31.841 178.05 33.602C178.05 35.3831 177.907 36.9315 177.622 38.2472C177.356 39.5628 176.948 40.6558 176.398 41.5261C175.847 42.3965 175.143 43.0442 174.286 43.4692C173.43 43.8943 172.41 44.1068 171.227 44.1068ZM171.257 40.5242C171.706 40.5242 172.073 40.2915 172.359 39.8259C172.665 39.3402 172.889 38.6014 173.032 37.6096C173.175 36.6178 173.246 35.3831 173.246 33.9056C173.246 32.3268 173.164 31.0213 173.001 29.989C172.858 28.9568 172.634 28.1876 172.328 27.6816C172.043 27.1554 171.675 26.8922 171.227 26.8922C170.819 26.8922 170.472 27.1452 170.186 27.6513C169.921 28.137 169.717 28.8859 169.574 29.8979C169.452 30.91 169.391 32.1952 169.391 33.7538C169.391 34.9075 169.421 35.9094 169.482 36.7595C169.564 37.6096 169.676 38.318 169.819 38.8847C169.982 39.4312 170.186 39.8462 170.431 40.1295C170.676 40.3927 170.951 40.5242 171.257 40.5242Z" fill="white"/>
<path d="M179.029 43.7121V23.674H183.772V43.7121H179.029ZM179.916 43.7121V39.7045H188.882V43.7121H179.916Z" fill="white"/>
<path d="M190.521 43.7121L186.788 23.674H191.775L193.734 39.8866H194.07L196.09 23.674H200.955L197.099 43.7121H190.521Z" fill="white"/>
<path d="M201.772 43.7121V23.674H207.127L211.472 36.0915H211.747L211.594 23.674H216V43.7121H210.768L206.3 30.9302H206.025L206.209 43.7121H201.772Z" fill="white"/>
<path d="M0.878174 26.6587C-0.254455 24.7229 -0.351807 21.7885 0.940981 19.2901C2.07047 17.1075 4.08973 15.7543 6.08282 15.4865C6.60099 15.4165 7.10449 15.6936 7.32327 16.1674C8.15966 17.9828 8.0644 20.3871 6.88467 22.5414C6.75801 22.7736 6.62192 22.9953 6.47642 23.2086C6.72974 23.1867 6.98725 23.1773 7.24686 23.1804C9.59586 23.2065 11.658 24.2115 12.8598 25.7133C13.2921 26.254 13.2837 27.0153 12.8388 27.5455C11.6026 29.0201 9.5184 29.9759 7.16939 29.9498C4.36609 29.9152 2.01185 28.5955 0.878174 26.6566V26.6587Z" fill="#E1EBFF"/>
<path d="M49.7572 27.0446C49.7572 26.621 49.864 25.6631 49.864 25.6631C49.864 25.6631 40.1225 11.2867 24.4028 26.9912C9.72365 41.6552 0 23.5705 0 23.5705C0 23.5705 0.0188423 26.9515 0.0188423 27.3039C0.0188423 57.7948 49.7572 57.4204 49.7572 27.0446Z" fill="white"/>
<path d="M46.0873 22.1294C45.3619 22.0144 43.2348 21.915 39.8714 23.6709C39.6453 23.7891 39.3763 23.7859 39.1575 23.6552C37.9694 22.9451 33.9298 20.818 30.4796 22.1534C30.4555 22.1618 30.4346 22.1702 30.4105 22.1785C30.4105 22.1785 32.3827 19.287 28.52 18.4399L37.6679 20.3191L42.4036 21.2917" fill="#D2E2FF"/>
<path d="M46.0873 22.1294C46.2726 22.1587 46.3281 22.2016 46.3281 22.2016C45.2676 21.2447 45.9638 19.6582 45.992 19.5975V19.5944L28.52 18.4399" fill="#D2E2FF"/>
<path d="M48.4142 18.4514L45.9919 19.5944V19.5976L43.085 20.9696L42.4046 21.2917L37.6689 20.3191L28.5209 18.4399C28.5052 18.4357 28.4864 18.4305 28.4707 18.4294L35.1053 15.4301L48.4142 18.4514Z" fill="#E6F0FF"/>
<path d="M17.2311 15.2146C20.8206 13.9587 24.6351 14.9375 25.3365 15.0128C25.4066 15.0201 25.4443 15.0254 25.4443 15.0254C25.4443 15.0254 26.7392 11.6151 29.6712 9.71907C32.6033 7.82306 31.7229 5.16363 29.2316 6.0766C26.8009 6.96761 25.2611 11.1643 25.2611 11.1643C25.2611 11.1643 24.8727 8.04895 25.5437 3.30109C26.0514 -0.289092 24.3577 -0.763879 22.6787 0.977355C21.1817 2.5293 21.0341 5.15736 21.0205 5.51815C20.852 9.9847 23.0189 12.4674 23.0189 12.4674C23.0189 12.4674 21.0718 10.8945 17.1956 11.6015C12.3824 12.4799 13.9055 16.3786 17.2311 15.2146Z" fill="white"/>
<path d="M49.9825 25.9308C49.9773 25.7792 49.8862 25.6432 49.747 25.5836C48.3799 24.9938 41.2135 22.6889 38.5945 37.7534C36.6087 49.1744 25.1955 49.8124 24.894 49.9996C26.5679 49.9996 50.7446 50.0884 49.9825 25.9319V25.9308Z" fill="#D2E2FF"/>
<path d="M22.3709 4.8551C22.2003 4.8551 22.061 4.71706 22.061 4.54555C22.061 4.21717 22.1416 3.04066 23.1738 1.69997C23.2785 1.56506 23.4721 1.53996 23.6082 1.64349C23.7432 1.74807 23.7694 1.94154 23.6647 2.0775C22.7509 3.26342 22.6797 4.26737 22.6797 4.54659C22.6797 4.71706 22.5415 4.85615 22.3698 4.85615L22.3709 4.8551Z" fill="white"/>
<path d="M28.5356 7.77183C28.4581 7.77183 28.3807 7.74359 28.321 7.68503C28.1975 7.56685 28.1943 7.37129 28.3126 7.24789C28.4707 7.0837 29.0757 6.53466 30.2262 6.36211C30.3947 6.33597 30.5528 6.45309 30.5779 6.62147C30.603 6.78984 30.4868 6.94775 30.3183 6.97285C29.5573 7.08684 29.014 7.41103 28.7596 7.67562C28.6989 7.73836 28.6172 7.77078 28.5366 7.77078L28.5356 7.77183Z" fill="white"/>
<path d="M15.3906 13.6575C15.3131 13.6575 15.2356 13.6292 15.176 13.5707C15.0525 13.4525 15.0493 13.2569 15.1676 13.1335C15.3257 12.9694 15.9307 12.4203 17.0811 12.2478C17.2497 12.2216 17.4077 12.3387 17.4329 12.5071C17.458 12.6755 17.3418 12.8334 17.1733 12.8585C16.4122 12.9725 15.8689 13.2967 15.6146 13.5613C15.5539 13.624 15.4722 13.6564 15.3916 13.6564L15.3906 13.6575Z" fill="white"/>
</g>
<defs>
<clipPath id="clip0_1212_474">
<rect width="216" height="50" fill="white"/>
</clipPath>
</defs>
</svg>
